<svg height="73pt" preserveAspectRatio="xMidYMid meet" viewBox="0 0 73 73" width="73pt" xmlns="http://www.w3.org/2000/svg"><g transform="matrix(.1 0 0 -.1 0 73)"><path d="m467 622c-117-118-148-170-149-252 0-52 16-112 38-145 8-11 57-64 110-117 101-101 100-101 147-66 17 13 11 22-84 118-106 109-129 145-129 205s23 96 136 209c103 103 107 109 89 123-48 36-47 36-158-75z"/><path d="m123 696-28-25 99-100 100-100 18 30c10 16 18 35 18 42 0 12-161 177-173 177-3 0-19-11-34-24z"/><path d="m589 552c-98-99-115-123-123-172-8-54 23-106 118-200l87-85 25 28c13 15 24 31 24 35s-38 45-85 90c-114 113-114 117 5 237l89 90-20 33c-12 17-24 32-27 31-4 0-46-39-93-87z"/><path d="m37 606c-9-13-18-29-19-35-2-5 34-48 80-95 107-110 107-113 1-221l-81-83 18-31c10-17 23-31 28-31 12 0 157 148 179 182 17 27 22 97 9 130-6 16-131 149-179 191-20 17-21 17-36-7z"/><path d="m193 157-91-93 34-24 35-24 82 82 81 81-19 35c-11 20-22 36-25 36s-46-42-97-93z"/></g></svg>