<svg height="340pt" preserveAspectRatio="xMidYMid meet" viewBox="0 0 340 340" width="340pt" xmlns="http://www.w3.org/2000/svg"><g transform="matrix(.1 0 0 -.1 0 340)"><path d="m959 3020c-149-40-222-192-155-322l27-52-352-351c-438-436-454-459-453-655 0-108 20-171 87-272 42-63 650-677 730-737 58-44 146-74 186-64 130 31 193 152 150 288-6 20-123 144-343 363-193 192-341 347-351 368-25 53-13 112 34 171 21 27 163 173 316 326 210 210 281 275 290 267 7-6 94-92 194-190 192-191 245-228 330-235 64-6 115 12 165 56 81 71 96 145 49 240-21 42-102 129-378 405-192 193-366 360-385 370-43 21-107 33-141 24z"/><path d="m2335 2768c-42-14-94-65-116-113-21-47-20-136 3-180 9-16 163-176 343-355 180-178 334-338 342-354 21-40 20-95-2-142-11-24-132-153-319-342l-301-303-196 193c-205 203-249 236-336 246-68 8-128-15-181-67-76-75-85-140-34-235 36-68 707-744 770-775 56-28 126-29 179-3 51 26 107 89 123 137 17 51 7 127-24 179l-25 42 350 350c193 192 368 375 390 408 57 85 83 179 76 275-14 178-45 221-436 609-178 178-343 339-365 357-85 68-175 95-241 73z"/></g></svg>